
<svg width="29px" height="42px" viewBox="0 0 29 42" version="1.1" xmlns="http://www.w3.org/2000/svg" xmlns:xlink="http://www.w3.org/1999/xlink">
  <!-- Generator: Sketch 50.2 (55047) - http://www.bohemiancoding.com/sketch -->
  <desc>Created with Sketch.</desc>
  <defs></defs>
  <g id="Design" stroke="none" stroke-width="1" fill="none" fill-rule="evenodd">
    <g id="Who's-on-Today?" transform="translate(-86.000000, -963.000000)">
      <g id="Group" transform="translate(86.000000, 963.000000)">
        <path d="M0.0197384053,13.5 C0.416590371,5.97857646 6.74786064,0 14.5,0 C22.2521394,0 28.5834096,5.97857646 28.9802616,13.5 L29,13.5 C29,13.6292482 28.99846,13.7581547 28.99538,13.8867197 C28.9984539,14.0074462 29,14.1285457 29,14.25 C28.9941762,14.25 28.9883548,14.25 28.9825357,14.25 C28.790549,18.3511119 27.0156687,22.1011119 23.6578947,25.5 C20.0964912,29.105011 17.0438596,34.605011 14.5,42 C11.9561404,34.605011 8.90350877,29.105011 5.34210526,25.5 C1.98433132,22.1011119 0.209451003,18.3511119 0.017464322,14.25 C0.0116452191,14.25 0.00582377909,14.25 0,14.25 C0,14.1285457 0.00154610858,14.0074462 0.00462003834,13.8867197 C0.00154001278,13.7581547 6.42631734e-15,13.6292482 7.10542736e-15,13.5 L0.0197384053,13.5 Z" id="Combined-Shape" fill="#FCA311"></path>
        <circle id="Oval-2" fill="#FFFFFF" cx="14.5" cy="14.5" r="7.5"></circle>
      </g>
    </g>
  </g>
</svg>
